<svg xmlns="http://www.w3.org/2000/svg" viewBox="0 0 232.46 232.46">
  <defs>
    <style>
      .cls-1 {
      fill: none;
      /* stroke: #ffd600;*/
      stroke: #000;
      stroke-miterlimit: 10;
      stroke-width: 3px;
      }
    </style>
  </defs>
  <g id="Calque_2" data-name="Calque 2">
    <g id="Calque_1-2" data-name="Calque 1">
      <!-- <rect width="232.46" height="232.46"/> -->
      <g>
        <polygon class="cls-1" points="94.53 153.65 72.85 141.14 72.85 141.12 51.14 128.61 51.14 153.65 72.85 166.18 94.53 178.71 94.53 153.67 94.53 153.65"/>
        <polyline class="cls-1" points="115.73 191.54 159.63 166.18 137.92 153.65 116.24 166.18 94.53 178.71 116.78 191.55"/>
        <polyline class="cls-1" points="116.24 166.18 137.92 153.65 137.92 128.61 116.24 141.12 116.24 141.14 94.56 153.65 94.53 153.65 94.53 153.67"/>
        <polyline class="cls-1" points="159.63 141.12 159.63 116.08 137.92 103.56 137.92 128.59 137.94 128.61"/>
        <polyline class="cls-1" points="137.92 103.56 116.24 91.03 94.53 103.56 94.53 128.59 116.24 141.12"/>
        <polygon class="cls-1" points="159.63 141.12 159.63 166.18 181.31 153.65 181.31 128.61 181.31 128.59 181.31 103.58 159.63 116.08 159.63 141.12"/>
        <polygon class="cls-1" points="159.63 65.97 137.94 53.44 137.92 53.44 137.92 53.46 137.92 78.5 159.63 91.03 181.31 103.56 181.31 78.5 181.31 78.47 159.63 65.97"/>
        <polygon class="cls-1" points="137.92 78.5 116.24 91.03 137.92 103.56 159.63 116.08 181.31 103.58 181.31 103.56 159.63 91.03 137.92 78.5"/>
        <polyline class="cls-1" points="116.24 65.97 94.53 78.5 94.53 103.56 116.24 91.03 137.92 78.5"/>
        <polygon class="cls-1" points="116.24 65.97 137.19 53.88 137.92 53.44 116.24 40.91 94.53 53.44 94.51 53.44 72.85 65.94 72.85 65.99 94.53 78.5 116.24 65.97"/>
        <polygon class="cls-1" points="72.85 141.14 94.53 153.65 94.56 153.65 116.24 141.14 116.24 141.12 94.53 128.59 72.85 116.08 51.14 128.59 51.14 128.61 72.85 141.12 72.85 141.14"/>
        <polyline class="cls-1" points="72.85 91.03 72.85 116.06 72.85 116.08 94.53 128.59 94.53 103.56 94.53 78.5"/>
        <polygon class="cls-1" points="72.85 116.06 72.85 91.03 72.85 65.99 72.83 65.97 51.14 78.47 51.14 78.5 51.14 103.56 51.14 128.59 72.85 116.08 72.85 116.06"/>
      </g>
    </g>
  </g>
</svg>